<svg width="85" height="85" viewBox="0 0 85 85" fill="none" xmlns="http://www.w3.org/2000/svg">
<rect x="0.988281" y="0.394043" width="83.8947" height="83.8947" rx="41.9474" fill="#008000" fill-opacity="0.1"/>
<path fill-rule="evenodd" clip-rule="evenodd" d="M42.9366 70.306C58.3812 70.306 70.9015 57.7857 70.9015 42.3411C70.9015 26.8965 58.3812 14.3762 42.9366 14.3762C27.492 14.3762 14.9717 26.8965 14.9717 42.3411C14.9717 57.7857 27.492 70.306 42.9366 70.306ZM53.5295 38.9515C54.5533 37.9277 54.5533 36.2677 53.5295 35.2439C52.5056 34.22 50.8456 34.22 49.8218 35.2439L39.441 45.6247L36.0514 42.2351C35.0275 41.2113 33.3676 41.2113 32.3437 42.2351C31.3199 43.259 31.3199 44.9189 32.3437 45.9428L37.5872 51.1862C38.611 52.21 40.271 52.21 41.2948 51.1862L53.5295 38.9515Z" fill="#008000"/>
</svg>
