<svg width="16" height="16" viewBox="0 0 16 16" fill="none" xmlns="http://www.w3.org/2000/svg">
<path d="M2.42895 12.9414L6.40645 8.96389M11.4152 7.19514L10.2246 10.767C10.2056 10.8243 10.173 10.8761 10.1297 10.9181C10.0864 10.9601 10.0336 10.991 9.97583 11.0083L2.67708 13.1776C2.61132 13.1972 2.54147 13.1983 2.47512 13.1809C2.40877 13.1635 2.34847 13.1282 2.30078 13.0789C2.25309 13.0296 2.21983 12.9681 2.20463 12.9013C2.18944 12.8344 2.19287 12.7646 2.21458 12.6995L4.58458 5.59077C4.60156 5.53973 4.62933 5.49294 4.666 5.45358C4.70266 5.41422 4.74737 5.3832 4.79708 5.36265L8.16395 3.9764C8.2324 3.94813 8.30769 3.94076 8.38032 3.95522C8.45295 3.96968 8.51967 4.00532 8.57208 4.05765L11.3246 6.81139C11.3738 6.86064 11.4084 6.92262 11.4244 6.9904C11.4404 7.05818 11.4372 7.12907 11.4152 7.19514Z" stroke="#313131" stroke-width="1.125" stroke-linecap="round" stroke-linejoin="round"/>
<path d="M11.4881 6.97512L13.2556 5.20699C13.49 4.97258 13.6216 4.6547 13.6216 4.32324C13.6216 3.99179 13.49 3.6739 13.2556 3.43949L11.9306 2.11324C11.8145 1.99712 11.6767 1.905 11.525 1.84215C11.3733 1.7793 11.2108 1.74695 11.0466 1.74695C10.8824 1.74695 10.7198 1.7793 10.5681 1.84215C10.4164 1.905 10.2786 1.99712 10.1625 2.11324L8.395 3.88137M7.73125 7.63762C7.64417 7.55058 7.54079 7.48154 7.42703 7.43445C7.31327 7.38736 7.19134 7.36314 7.06822 7.36316C6.94509 7.36319 6.82318 7.38747 6.70944 7.43462C6.5957 7.48176 6.49236 7.55085 6.40531 7.63793C6.31827 7.72501 6.24923 7.82839 6.20214 7.94215C6.15505 8.05591 6.13083 8.17784 6.13086 8.30097C6.13089 8.42409 6.15517 8.546 6.20231 8.65974C6.24946 8.77348 6.31854 8.87683 6.40563 8.96387C6.5815 9.13966 6.82 9.23838 7.06866 9.23832C7.31732 9.23826 7.55577 9.13943 7.73156 8.96356C7.90735 8.78769 8.00608 8.54918 8.00602 8.30052C8.00596 8.05186 7.90712 7.81341 7.73125 7.63762Z" stroke="#313131" stroke-width="1.125" stroke-linecap="round" stroke-linejoin="round"/>
</svg>
